<?xml version="1.0" encoding="UTF-8" standalone="no"?>
<!-- Created with Inkscape (http://www.inkscape.org/) -->

<svg
   xmlns:dc="http://purl.org/dc/elements/1.1/"
   xmlns:cc="http://creativecommons.org/ns#"
   xmlns:rdf="http://www.w3.org/1999/02/22-rdf-syntax-ns#"
   xmlns:svg="http://www.w3.org/2000/svg"
   xmlns="http://www.w3.org/2000/svg"
   xmlns:sodipodi="http://sodipodi.sourceforge.net/DTD/sodipodi-0.dtd"
   xmlns:inkscape="http://www.inkscape.org/namespaces/inkscape"
   width="164"
   height="314"
   viewBox="0 0 43.391666 83.079169"
   version="1.1"
   id="svg5"
   inkscape:version="0.92.4 (5da689c313, 2019-01-14)"
   sodipodi:docname="installImage.svg"
   inkscape:export-filename="C:\Users\pasto\Nextcloud\Documents\Python Workspace\Sermon Prep Database\resources\installImage.png"
   inkscape:export-xdpi="96"
   inkscape:export-ydpi="96">
  <metadata
     id="metadata825">
    <rdf:RDF>
      <cc:Work
         rdf:about="">
        <dc:format>image/svg+xml</dc:format>
        <dc:type
           rdf:resource="http://purl.org/dc/dcmitype/StillImage" />
        <dc:title></dc:title>
      </cc:Work>
    </rdf:RDF>
  </metadata>
  <sodipodi:namedview
     id="namedview7"
     pagecolor="#ffffff"
     bordercolor="#666666"
     borderopacity="1.0"
     inkscape:pageshadow="2"
     inkscape:pageopacity="0.0"
     inkscape:pagecheckerboard="0"
     inkscape:document-units="mm"
     showgrid="true"
     units="px"
     inkscape:zoom="2"
     inkscape:cx="172.1894"
     inkscape:cy="139.90279"
     inkscape:window-width="1920"
     inkscape:window-height="1009"
     inkscape:window-x="-8"
     inkscape:window-y="-8"
     inkscape:window-maximized="1"
     inkscape:current-layer="layer1"
     inkscape:snap-global="false"
     inkscape:snap-bbox="true"
     inkscape:bbox-paths="true"
     inkscape:snap-smooth-nodes="true"
     inkscape:showpageshadow="2"
     inkscape:deskcolor="#d1d1d1">
    <inkscape:grid
       type="xygrid"
       id="grid824" />
  </sodipodi:namedview>
  <defs
     id="defs2">
    <clipPath
       clipPathUnits="userSpaceOnUse"
       id="clipPath1993">
      <path
         style="fill:none;stroke:#000000;stroke-width:0.26458299px;stroke-linecap:butt;stroke-linejoin:miter;stroke-opacity:1"
         d="M 25.135416,17.197916 -17.197917,27.78125 -59.53125,17.197916 V 2.6458333 h 84.666667 z"
         id="path1995"
         sodipodi:nodetypes="cccccc"
         inkscape:connector-curvature="0" />
    </clipPath>
  </defs>
  <g
     inkscape:label="Layer 1"
     inkscape:groupmode="layer"
     id="layer1"
     transform="translate(0,15.345833)">
    <rect
       style="opacity:1;fill:#ffffff;fill-opacity:1;stroke:#008000;stroke-width:0.02487083;stroke-linecap:round;stroke-linejoin:round;stroke-miterlimit:4;stroke-dasharray:none;stroke-dashoffset:0;stroke-opacity:1;paint-order:normal"
       id="rect1125"
       width="44.846874"
       height="85.592705"
       x="-0.39687499"
       y="-16.801041" />
    <g
       id="g1127" />
    <g
       id="g1086">
      <g
         transform="translate(0,-2.1166667)"
         id="g1016">
        <g
           transform="translate(-7.0502056,-13.234842)"
           id="g1152">
          <path
             sodipodi:nodetypes="sssssssss"
             inkscape:connector-curvature="0"
             id="path1148"
             d="m 15.875,59.795834 h 26.458333 c 1.108001,0 1.666691,0.943322 2.000001,2.000001 L 47.625,72.23125 c 0.333311,1.056679 -0.892,2.000002 -2.000001,2.000002 H 12.583334 c -1.108,0 -2.333311,-0.943323 -2.000001,-2.000002 L 13.874999,61.795835 C 14.20831,60.739155 14.767,59.795834 15.875,59.795834 Z"
             style="opacity:1;fill:#a1a1a1;fill-opacity:1;stroke:none;stroke-width:3.96875;stroke-linecap:round;stroke-linejoin:round;stroke-miterlimit:4;stroke-dasharray:none;stroke-dashoffset:0;stroke-opacity:1;paint-order:normal" />
          <rect
             ry="2"
             rx="2"
             y="70.379166"
             x="10.583333"
             height="10.583333"
             width="37.041668"
             id="rect1146"
             style="opacity:1;fill:#a1a1a1;fill-opacity:1;stroke:none;stroke-width:3.96875;stroke-linecap:round;stroke-linejoin:round;stroke-miterlimit:4;stroke-dasharray:none;stroke-dashoffset:0;stroke-opacity:1;paint-order:normal" />
        </g>
        <path
           sodipodi:nodetypes="sssssssss"
           inkscape:connector-curvature="0"
           id="rect898"
           d="M 8.4666669,46.23594 H 34.925 c 1.108001,0 1.666691,0.943322 2.000001,2.000001 l 3.291666,10.435415 c 0.333311,1.056679 -0.892,2.000002 -2.000001,2.000002 H 5.175001 c -1.1080006,0 -2.3333117,-0.943323 -2.0000011,-2.000002 L 6.4666658,48.235941 C 6.7999765,47.179261 7.3586663,46.23594 8.4666669,46.23594 Z"
           style="opacity:1;fill:#d7f4d7;fill-opacity:1;stroke:none;stroke-width:3.96875;stroke-linecap:round;stroke-linejoin:round;stroke-miterlimit:4;stroke-dasharray:none;stroke-dashoffset:0;stroke-opacity:1;paint-order:normal" />
        <rect
           ry="2"
           rx="2"
           y="56.819271"
           x="3.175"
           height="10.583333"
           width="37.041668"
           id="rect894"
           style="opacity:1;fill:#008000;fill-opacity:1;stroke:none;stroke-width:3.96875;stroke-linecap:round;stroke-linejoin:round;stroke-miterlimit:4;stroke-dasharray:none;stroke-dashoffset:0;stroke-opacity:1;paint-order:normal" />
        <g
           id="g985"
           style="fill:#008000;fill-opacity:1">
          <ellipse
             style="opacity:1;fill:#008000;fill-opacity:1;stroke:none;stroke-width:3.07417798;stroke-linecap:round;stroke-linejoin:round;stroke-miterlimit:4;stroke-dasharray:none;stroke-dashoffset:0;stroke-opacity:1;paint-order:normal"
             id="path904"
             cx="8.4666662"
             cy="53.379692"
             rx="1.3229166"
             ry="0.79374868" />
          <ellipse
             ry="0.79374868"
             rx="1.3229166"
             cy="53.379692"
             cx="34.924999"
             id="ellipse906"
             style="opacity:1;fill:#008000;fill-opacity:1;stroke:none;stroke-width:3.07417798;stroke-linecap:round;stroke-linejoin:round;stroke-miterlimit:4;stroke-dasharray:none;stroke-dashoffset:0;stroke-opacity:1;paint-order:normal" />
          <ellipse
             style="opacity:1;fill:#008000;fill-opacity:1;stroke:none;stroke-width:2.56181502;stroke-linecap:round;stroke-linejoin:round;stroke-miterlimit:4;stroke-dasharray:none;stroke-dashoffset:0;stroke-opacity:1;paint-order:normal"
             id="ellipse908"
             cx="31.727951"
             cy="48.220318"
             rx="1.1024306"
             ry="0.66145724" />
          <ellipse
             ry="0.66145724"
             rx="1.1024306"
             cy="48.220318"
             cx="11.663715"
             id="ellipse910"
             style="opacity:1;fill:#008000;fill-opacity:1;stroke:none;stroke-width:2.56181502;stroke-linecap:round;stroke-linejoin:round;stroke-miterlimit:4;stroke-dasharray:none;stroke-dashoffset:0;stroke-opacity:1;paint-order:normal" />
        </g>
        <rect
           ry="2.0000012"
           rx="2.0000012"
           y="59.465103"
           x="5.8208332"
           height="5.2916665"
           width="23.8125"
           id="rect912"
           style="opacity:1;fill:#d7f4d7;fill-opacity:1;stroke:none;stroke-width:3.96875;stroke-linecap:round;stroke-linejoin:round;stroke-miterlimit:4;stroke-dasharray:none;stroke-dashoffset:0;stroke-opacity:1;paint-order:normal" />
        <path
           inkscape:connector-curvature="0"
           id="path914"
           d="m 33.602084,58.14219 h 2.645833 v 2.645834 h -2.645833 z"
           style="fill:#d7f4d7;fill-opacity:1;stroke:none;stroke-width:0.26458332px;stroke-linecap:butt;stroke-linejoin:miter;stroke-opacity:1" />
        <path
           style="fill:#d7f4d7;fill-opacity:1;stroke:none;stroke-width:0.26458332px;stroke-linecap:butt;stroke-linejoin:miter;stroke-opacity:1"
           d="m 33.602084,63.433856 h 2.645833 v 2.645834 h -2.645833 z"
           id="path916"
           inkscape:connector-curvature="0" />
        <path
           sodipodi:nodetypes="ccccccc"
           inkscape:connector-curvature="0"
           id="path918"
           d="m 5.8208333,61.31719 c 0.2645833,-1.5875 1.8520833,-1.5875 1.8520833,-1.5875 H 27.78125 c 0,0 1.5875,0 1.852084,1.5875 0,-1.852084 -1.852084,-1.852084 -1.852084,-1.852084 H 7.6729166 c 0,0 -1.8520833,0 -1.8520833,1.852084 z"
           style="fill:#a1a1a1;fill-opacity:1;stroke:none;stroke-width:0.26458332px;stroke-linecap:butt;stroke-linejoin:miter;stroke-opacity:1" />
        <path
           inkscape:connector-curvature="0"
           id="path920"
           d="m 21.695833,60.258855 v 3.96875 H 22.225 v -3.96875 z"
           style="fill:#a1a1a1;fill-opacity:1;stroke:none;stroke-width:0.26458332px;stroke-linecap:butt;stroke-linejoin:miter;stroke-opacity:1" />
        <path
           style="fill:#a1a1a1;fill-opacity:1;stroke:none;stroke-width:0.26458332px;stroke-linecap:butt;stroke-linejoin:miter;stroke-opacity:1"
           d="m 22.754167,60.258856 v 3.96875 h 0.529167 v -3.96875 z"
           id="path922"
           inkscape:connector-curvature="0" />
        <path
           inkscape:connector-curvature="0"
           id="path924"
           d="m 23.8125,60.258856 v 3.96875 h 0.529167 v -3.96875 z"
           style="fill:#a1a1a1;fill-opacity:1;stroke:none;stroke-width:0.26458332px;stroke-linecap:butt;stroke-linejoin:miter;stroke-opacity:1" />
        <path
           style="fill:#a1a1a1;fill-opacity:1;stroke:none;stroke-width:0.26458332px;stroke-linecap:butt;stroke-linejoin:miter;stroke-opacity:1"
           d="m 24.870834,60.258856 v 3.96875 h 0.529167 v -3.96875 z"
           id="path926"
           inkscape:connector-curvature="0" />
        <path
           inkscape:connector-curvature="0"
           id="path928"
           d="m 20.6375,60.258856 v 3.96875 h 0.529167 v -3.96875 z"
           style="fill:#a1a1a1;fill-opacity:1;stroke:none;stroke-width:0.26458332px;stroke-linecap:butt;stroke-linejoin:miter;stroke-opacity:1" />
      </g>
      <g
         transform="translate(0,-4.7625002)"
         id="g1020">
        <path
           id="path963"
           style="fill:none;stroke:#8a8a8a;stroke-width:3.96875;stroke-linecap:round;stroke-linejoin:round;stroke-miterlimit:4;stroke-dasharray:none;stroke-opacity:1"
           d="m 22.026562,42.664062 1e-6,-15.875 m -7.9375,10.583333 7.9375,5.291667 7.937499,-5.291667"
           inkscape:connector-curvature="0"
           sodipodi:nodetypes="ccccc" />
        <path
           sodipodi:nodetypes="ccccc"
           inkscape:connector-curvature="0"
           d="m 21.695833,42.333333 1e-6,-15.875 m -7.9375,10.583333 7.9375,5.291667 7.937499,-5.291667"
           style="fill:none;stroke:#008000;stroke-width:3.96875;stroke-linecap:round;stroke-linejoin:round;stroke-miterlimit:4;stroke-dasharray:none;stroke-opacity:1"
           id="path960" />
      </g>
      <g
         transform="translate(-47.040652,-45.08837)"
         id="g961">
        <path
           style="fill:#d7f4d7;fill-opacity:1;stroke:none;stroke-width:0.26458332px;stroke-linecap:butt;stroke-linejoin:miter;stroke-opacity:1"
           d="m 56.641094,40.044211 c -0.821574,1.77156 -1.010638,3.395535 1.870888,4.303038 l 25.210195,-0.09354 c 2.922479,-1.019714 2.445578,-2.625529 1.824117,-4.256267 -8.544797,2.36151 -18.909218,2.698785 -28.9052,0.04677 z"
           id="path955"
           inkscape:connector-curvature="0"
           sodipodi:nodetypes="ccccc" />
        <ellipse
           style="opacity:1;fill:#d7f4d7;fill-opacity:1;stroke:none;stroke-width:0.02410983;stroke-linecap:round;stroke-linejoin:round;stroke-miterlimit:4;stroke-dasharray:none;stroke-dashoffset:0;stroke-opacity:1;paint-order:normal"
           id="path953"
           cx="70.993164"
           cy="38.067902"
           rx="16.319336"
           ry="3.6280479" />
        <path
           inkscape:connector-curvature="0"
           id="path933"
           d="m 58.462283,44.666349 c -0.336154,-0.02859 -0.694961,-0.126397 -1.002271,-0.273196 -0.333217,-0.159174 -0.53004,-0.293457 -0.783853,-0.534783 -0.608804,-0.578856 -0.931132,-1.331137 -0.931132,-2.173168 0,-0.493828 0.08762,-0.88856 0.293562,-1.322547 0.04949,-0.104279 0.08357,-0.199956 0.07575,-0.212616 -0.0078,-0.01266 -0.134413,-0.08275 -0.28131,-0.155748 -0.738865,-0.367186 -1.273606,-0.841742 -1.440401,-1.278281 -0.33125,-0.866962 0.325625,-1.675512 1.911091,-2.352373 4.155263,-1.773946 14.165763,-2.479806 22.304097,-1.572703 3.1265,0.348481 5.729569,0.925447 7.318105,1.622048 1.501251,0.658324 2.125497,1.465371 1.790611,2.314974 -0.171512,0.435128 -0.699673,0.901789 -1.433226,1.266335 -0.146897,0.073 -0.274009,0.143933 -0.28247,0.157625 -0.0085,0.01369 0.02537,0.108481 0.07519,0.210644 0.485056,0.994737 0.369821,2.227751 -0.290797,3.111536 -0.518768,0.694017 -1.299583,1.121733 -2.181172,1.194806 -0.359956,0.02984 -24.790178,0.02736 -25.141769,-0.0025 z M 79.375,43.920834 l 4.367926,-0.0048 0.20316,-0.05587 c 0.788659,-0.216882 1.363392,-0.779942 1.603798,-1.571225 0.0596,-0.196169 0.06809,-0.268255 0.06965,-0.591615 0.002,-0.420281 -0.04498,-0.648184 -0.2019,-0.978856 -0.130891,-0.275828 -0.128577,-0.274503 -0.348043,-0.199328 -1.641497,0.562269 -4.089943,1.052852 -6.570712,1.31654 -4.58345,0.487189 -10.14826,0.482052 -14.729054,-0.0136 -2.636405,-0.285263 -5.087458,-0.743186 -6.47056,-1.208876 -0.227629,-0.07664 -0.430906,-0.132814 -0.451725,-0.124825 -0.05505,0.02112 -0.229779,0.401515 -0.29286,0.637554 -0.07826,0.292819 -0.07861,0.777386 -8.08e-4,1.091982 0.199425,0.806341 0.796127,1.3955 1.667164,1.646088 0.16404,0.04719 0.280696,0.05247 1.510998,0.06832 0.733278,0.0095 4.47014,0.01178 8.304139,0.0052 3.833998,-0.0066 8.936472,-0.01413 11.338831,-0.01674 z m -5.307538,-2.475253 c 3.965345,-0.191044 6.927272,-0.561821 9.370725,-1.173035 1.960968,-0.490524 3.35697,-1.164194 3.630608,-1.752028 0.120273,-0.258369 0.06855,-0.450357 -0.195462,-0.725497 -0.976585,-1.017756 -4.320618,-1.919688 -8.831566,-2.381993 -7.626638,-0.781618 -16.756318,-0.17392 -21.039692,1.400464 -1.231036,0.452476 -2.016736,1.024115 -2.01809,1.468269 -10e-4,0.337706 0.400573,0.725601 1.141965,1.102987 2.092378,1.065068 6.759924,1.86413 12.024495,2.058535 0.405049,0.01496 0.822161,0.03094 0.926915,0.03552 0.42765,0.01868 4.471619,-0.0082 4.990102,-0.03322 z"
           style="fill:#008000;stroke:none;stroke-width:0.02539492"
           sodipodi:nodetypes="cccsccccsssccccsccccccccccssccccccccccsccsscscccc" />
        <path
           inkscape:connector-curvature="0"
           id="path929"
           d="m 56.261357,62.890545 c -0.317742,-0.06286 -0.154246,0.08841 -3.34469,-3.094711 -1.893485,-1.889143 -3.002914,-3.014362 -3.064928,-3.108549 -0.131827,-0.200221 -0.184841,-0.371888 -0.18341,-0.593901 9.72e-4,-0.150815 0.01537,-0.213625 0.08155,-0.355689 0.07393,-0.158705 0.161176,-0.253337 1.088548,-1.180711 0.933796,-0.933794 1.021293,-1.01436 1.185942,-1.091982 0.162386,-0.07655 0.198751,-0.0838 0.420351,-0.0838 0.229864,0 0.253171,0.0052 0.444411,0.09815 0.199872,0.0972 0.2306,0.126934 3.176059,3.072786 3.211609,3.212041 3.065978,3.054267 3.138551,3.40026 0.03836,0.182897 0.0046,0.403338 -0.09457,0.61683 -0.06067,0.130665 -0.202806,0.284408 -1.050689,1.136522 -0.892726,0.897182 -0.996442,0.993259 -1.158289,1.072966 -0.16228,0.07992 -0.389556,0.142473 -0.492319,0.135494 -0.02253,-0.0015 -0.08847,-0.01218 -0.14652,-0.02366 z m 3.034128,-4.553047 c -0.07931,-0.03335 -0.187875,-0.09574 -0.241252,-0.138646 -0.05338,-0.04291 -1.138372,-1.12158 -2.411101,-2.397045 -2.597558,-2.603144 -2.456165,-2.441272 -2.458194,-2.814229 -8.76e-4,-0.161111 0.01013,-0.211986 0.07144,-0.330134 0.0583,-0.112352 0.549959,-0.619013 2.513616,-2.590282 1.342629,-1.347836 2.498283,-2.494945 2.568119,-2.549133 0.15438,-0.119788 0.292628,-0.181664 0.48559,-0.217335 0.194336,-0.03592 11.611742,-0.03761 11.830947,-0.0018 0.19215,0.03144 0.337034,0.129353 0.412667,0.278888 0.05539,0.109519 0.05712,0.135494 0.05658,0.850391 -6.25e-4,0.824545 -0.0089,0.871078 -0.179942,1.015314 -0.194631,0.164101 0.03031,0.152568 -3.247815,0.166517 -2.3386,0.01 -2.996036,0.01964 -3.040009,0.04478 -0.134378,0.07684 -0.301894,0.395837 -0.372526,0.709381 -0.05007,0.222272 -0.05355,0.657469 -0.0067,0.83302 0.07369,0.275857 0.225369,0.484144 0.426959,0.586298 l 0.12322,0.06244 3.104221,-0.0069 c 3.537918,-0.0079 3.208284,0.01416 3.574026,-0.239257 0.96649,-0.669679 6.288176,-4.196791 6.408942,-4.247723 l 0.155645,-0.06564 h 1.410543 c 1.307592,0 1.415556,0.0033 1.479254,0.04503 0.121345,0.07952 0.08373,0.244114 -0.100012,0.437708 -0.05998,0.0632 -7.939953,6.971065 -8.310747,7.285503 -0.06419,0.05443 -0.186874,0.132058 -0.272627,0.1725 l -0.15592,0.07353 -5.061508,-0.0016 -5.06151,-0.0016 -1.499529,1.494892 c -1.013069,1.009938 -1.532482,1.510241 -1.601109,1.542203 -0.161814,0.07536 -0.42597,0.07665 -0.601311,0.0029 z"
           style="fill:#008000;stroke:none;stroke-width:0.02539492" />
      </g>
    </g>
  </g>
</svg>
