<?xml version="1.0" encoding="UTF-8" standalone="no"?>
<!-- Created with Inkscape (http://www.inkscape.org/) -->

<svg
   xmlns:dc="http://purl.org/dc/elements/1.1/"
   xmlns:cc="http://creativecommons.org/ns#"
   xmlns:rdf="http://www.w3.org/1999/02/22-rdf-syntax-ns#"
   xmlns:svg="http://www.w3.org/2000/svg"
   xmlns="http://www.w3.org/2000/svg"
   xmlns:sodipodi="http://sodipodi.sourceforge.net/DTD/sodipodi-0.dtd"
   xmlns:inkscape="http://www.inkscape.org/namespaces/inkscape"
   width="128"
   height="128"
   viewBox="0 0 33.866666 33.866666"
   version="1.1"
   id="svg5"
   inkscape:version="0.92.4 (5da689c313, 2019-01-14)"
   sodipodi:docname="unityIcon2.svg"
   inkscape:export-filename="C:\Users\pasto\Nextcloud\Documents\Python Workspace\LBCNWeeklyGiving\src\resources\unityIcon2.png"
   inkscape:export-xdpi="96"
   inkscape:export-ydpi="96">
  <metadata
     id="metadata11">
    <rdf:RDF>
      <cc:Work
         rdf:about="">
        <dc:format>image/svg+xml</dc:format>
        <dc:type
           rdf:resource="http://purl.org/dc/dcmitype/StillImage" />
        <dc:title></dc:title>
      </cc:Work>
    </rdf:RDF>
  </metadata>
  <sodipodi:namedview
     id="namedview7"
     pagecolor="#ffffff"
     bordercolor="#666666"
     borderopacity="1.0"
     inkscape:showpageshadow="2"
     inkscape:pageopacity="0.0"
     inkscape:pagecheckerboard="0"
     inkscape:deskcolor="#d1d1d1"
     inkscape:document-units="px"
     showgrid="true"
     inkscape:zoom="4.1776837"
     inkscape:cx="99.49448"
     inkscape:cy="49.54279"
     inkscape:window-width="1920"
     inkscape:window-height="1009"
     inkscape:window-x="-8"
     inkscape:window-y="-8"
     inkscape:window-maximized="1"
     inkscape:current-layer="layer1">
    <inkscape:grid
       type="xygrid"
       id="grid1463" />
  </sodipodi:namedview>
  <defs
     id="defs2" />
  <g
     inkscape:label="Layer 1"
     inkscape:groupmode="layer"
     id="layer1">
    <rect
       style="opacity:0;fill:#666666;fill-opacity:1;stroke:none;stroke-width:2.64583325;stroke-linecap:butt;stroke-linejoin:round;stroke-miterlimit:4;stroke-dasharray:none;stroke-dashoffset:0;stroke-opacity:1;paint-order:normal"
       id="rect875"
       width="37.041668"
       height="37.041668"
       x="-2.6458333"
       y="-0.52916664" />
    <g
       id="g849"
       transform="translate(-38.140823,14.328325)"
       style="stroke:none">
      <path
         inkscape:connector-curvature="0"
         id="rect1517"
         d="m 43.43249,-14.328325 c -2.931583,0 -5.291666,2.360083 -5.291666,5.2916673 V 14.246674 c 0,1.465792 0.590207,2.788523 1.546675,3.744992 l 30.773316,-30.773315 c -0.956468,-0.956469 -2.2792,-1.546676 -3.744991,-1.546676 z"
         style="opacity:1;fill:#008000;stroke-width:1.32291996;stroke-linecap:round;stroke-linejoin:round;stroke:none" />
      <path
         style="opacity:1;fill:#ffffff;stroke-width:1.32291996;stroke-linecap:round;stroke-linejoin:round;stroke:none"
         d="m 66.715824,19.538342 c 2.931583,0 5.291666,-2.360083 5.291666,-5.291667 V -9.0366568 c 0,-1.4657922 -0.590207,-2.7885232 -1.546675,-3.7449922 L 39.687499,17.991666 c 0.956468,0.956469 2.2792,1.546676 3.744991,1.546676 z"
         id="path845"
         inkscape:connector-curvature="0" />
    </g>
    <g
       id="g858"
       transform="translate(-2.4349936,2.4349921)">
      <path
         sodipodi:nodetypes="cssssc"
         inkscape:connector-curvature="0"
         id="rect1889"
         d="M 31.749999,2.1166666 C 30.98034,1.3470083 29.915733,0.87229815 28.736229,0.87229815 H 10.000422 c -2.3590091,0 -4.2581385,1.89912945 -4.2581385,4.25813795 V 23.866243 c 0,1.179505 0.4747102,2.244111 1.2443685,3.013771"
         style="opacity:1;fill:none;stroke:#ffffff;stroke-width:2.64582992;stroke-linecap:butt;stroke-linejoin:round;stroke-dasharray:none" />
      <path
         style="opacity:1;fill:none;stroke:#008000;stroke-width:2.64583325;stroke-linecap:butt;stroke-linejoin:round;stroke-miterlimit:4;stroke-dasharray:none;stroke-opacity:1"
         d="m 6.9866531,26.880014 c 0.769659,0.769658 1.834266,1.244368 3.0137699,1.244368 H 28.73623 c 2.359009,0 4.258138,-1.899129 4.258138,-4.258138 V 5.1304374 c 0,-1.1795045 -0.47471,-2.2441111 -1.244369,-3.0137708"
         id="path854"
         inkscape:connector-curvature="0"
         sodipodi:nodetypes="cssssc" />
    </g>
    <g
       id="g873"
       transform="translate(0.299723,-4.0046352)">
      <path
         inkscape:connector-curvature="0"
         id="text865"
         d="m 17.067691,9.0309728 c -1.694987,0 -3.023071,0.5012616 -3.984252,1.5037842 -0.961181,1.002523 -1.441773,2.387451 -1.441773,4.154785 v 11.239624 l 3.519165,-3.519165 v -7.9375 c 0,-0.775147 0.149862,-1.353923 0.449585,-1.736328 0.299723,-0.392741 0.744141,-0.589112 1.333251,-0.589112 0.589113,0 1.033529,0.196371 1.333251,0.589112 0.299726,0.382405 0.449586,0.961181 0.449586,1.736328 v 2.371948 h 1.999879 l 1.333252,-1.333252 V 14.78256 c 0,-1.891358 -0.423746,-3.322795 -1.271241,-4.294312 C 19.940902,9.5167314 18.700667,9.0309728 17.067691,9.0309728 Z M 16.63361,20.627164 v 0.310058 l 0.310057,-0.310058 z"
         style="font-style:normal;font-weight:normal;font-size:31.75px;line-height:1.25;font-family:sans-serif;fill:#ffffff;fill-opacity:1;stroke:none;stroke-width:0.26458299" />
      <path
         inkscape:connector-curvature="0"
         id="text1729"
         d="m 22.059635,15.511197 -1.70739,1.707389 h 1.70739 z m -5.426025,5.490104 v 2.852539 h 2.092895 v 3.503662 c 0,0.775147 -0.149862,1.35909 -0.449585,1.751831 -0.299723,0.392741 -0.744141,0.589111 -1.333252,0.589111 -0.589111,0 -1.033528,-0.19637 -1.333252,-0.589111 -0.299723,-0.392741 -0.449585,-0.976684 -0.449585,-1.751831 V 22.41 l -3.519165,3.519166 v 0.622184 c 0,2.025716 0.408244,3.570841 1.224731,4.635375 0.816488,1.064535 1.994711,1.596803 3.534668,1.596803 0.764812,0 1.415935,-0.165365 1.95337,-0.496094 0.537435,-0.330729 0.997355,-0.842327 1.37976,-1.534789 l 0.666626,1.550291 h 1.658814 V 21.001301 Z"
         style="font-style:normal;font-weight:normal;font-size:31.75px;line-height:1.25;font-family:sans-serif;fill:#008000;fill-opacity:1;stroke:none;stroke-width:0.26458299" />
    </g>
  </g>
</svg>
